<?xml version="1.0" encoding="UTF-8" standalone="no"?>
<svg
   class="svg-icon"
   viewBox="0 0 20 20"
   version="1.1"
   id="svg4"
   sodipodi:docname="present.svg"
   inkscape:version="1.1 (c68e22c387, 2021-05-23)"
   xmlns:inkscape="http://www.inkscape.org/namespaces/inkscape"
   xmlns:sodipodi="http://sodipodi.sourceforge.net/DTD/sodipodi-0.dtd"
   xmlns="http://www.w3.org/2000/svg"
   xmlns:svg="http://www.w3.org/2000/svg">
  <defs
     id="defs8" />
  <sodipodi:namedview
     id="namedview6"
     pagecolor="#ffffff"
     bordercolor="#666666"
     borderopacity="1.0"
     inkscape:pageshadow="2"
     inkscape:pageopacity="0.0"
     inkscape:pagecheckerboard="0"
     showgrid="false"
     inkscape:snap-global="false"
     showguides="true"
     inkscape:guide-bbox="true"
     inkscape:object-nodes="false"
     inkscape:snap-midpoints="true"
     inkscape:snap-to-guides="true"
     inkscape:zoom="22.627417"
     inkscape:cx="13.059378"
     inkscape:cy="13.987456"
     inkscape:window-width="1920"
     inkscape:window-height="1051"
     inkscape:window-x="0"
     inkscape:window-y="0"
     inkscape:window-maximized="1"
     inkscape:current-layer="layer2" />
  <g
     inkscape:groupmode="layer"
     id="layer2"
     inkscape:label="Layer 5">
<path
                                            d="M17.114,3.923h-4.589V2.427c0-0.252-0.207-0.459-0.46-0.459H7.935c-0.252,0-0.459,0.207-0.459,0.459v1.496h-4.59c-0.252,0-0.459,0.205-0.459,0.459c0,0.252,0.207,0.459,0.459,0.459h1.51v12.732c0,0.252,0.207,0.459,0.459,0.459h10.29c0.254,0,0.459-0.207,0.459-0.459V4.841h1.511c0.252,0,0.459-0.207,0.459-0.459C17.573,4.127,17.366,3.923,17.114,3.923M8.394,2.886h3.214v0.918H8.394V2.886z M14.686,17.114H5.314V4.841h9.372V17.114z M12.525,7.306v7.344c0,0.252-0.207,0.459-0.46,0.459s-0.458-0.207-0.458-0.459V7.306c0-0.254,0.205-0.459,0.458-0.459S12.525,7.051,12.525,7.306M8.394,7.306v7.344c0,0.252-0.207,0.459-0.459,0.459s-0.459-0.207-0.459-0.459V7.306c0-0.254,0.207-0.459,0.459-0.459S8.394,7.051,8.394,7.306">
                                        </path>
  </g>
</svg>
